<?xml version="1.0" standalone="no"?>
<!DOCTYPE svg PUBLIC "-//W3C//DTD SVG 20010904//EN"
 "http://www.w3.org/TR/2001/REC-SVG-20010904/DTD/svg10.dtd">
<svg version="1.0" xmlns="http://www.w3.org/2000/svg"
 width="512.000000pt" height="512.000000pt" viewBox="0 0 512.000000 512.000000"
 preserveAspectRatio="xMidYMid meet">
<metadata>
Created by potrace 1.14, written by Peter Selinger 2001-2017
</metadata>
<g transform="translate(0.000000,512.000000) scale(0.100000,-0.100000)"
fill="#000000" stroke="none">
<path d="M0 2560 l0 -2560 2560 0 2560 0 0 2560 0 2560 -2560 0 -2560 0 0
-2560z m2545 1395 c529 -62 824 -299 874 -705 7 -52 11 -341 11 -752 0 -368 4
-668 8 -668 16 0 181 139 272 230 140 139 225 264 276 410 l24 65 0 -227 0
-228 -152 -126 c-84 -70 -215 -175 -290 -233 l-137 -106 -1 -272 0 -273 -271
0 -270 0 3 120 c2 66 2 120 0 120 -1 0 -71 -34 -155 -75 -330 -161 -616 -224
-929 -205 -284 18 -476 86 -620 218 -125 115 -186 254 -195 442 -10 202 48
356 188 504 145 153 259 225 745 470 181 91 370 188 419 216 200 115 440 285
518 368 l29 30 -12 98 c-36 303 -164 454 -424 499 -231 40 -406 -1 -512 -118
-102 -114 -151 -291 -179 -644 l-7 -83 -354 0 -353 0 30 88 c115 324 332 583
604 720 121 61 279 106 440 125 79 10 303 5 420 -8z"/>
<path d="M2549 2812 c-421 -321 -520 -402 -639 -522 -202 -203 -280 -376 -280
-619 0 -191 37 -301 130 -384 62 -56 120 -77 230 -84 252 -16 749 142 877 279
l23 24 2 782 c2 430 1 782 -2 781 -3 0 -156 -116 -341 -257z"/>
</g>
</svg>
